<svg width="142" height="53" viewBox="0 0 142 53" fill="none" xmlns="http://www.w3.org/2000/svg">
<path d="M123.85 22.3598C123.258 23.1911 122.747 24.0064 122.139 24.7259C121.644 25.3174 121.084 25.8769 120.444 26.3245C118.638 27.6035 116.528 27.2837 115.249 25.4772C114.673 24.6619 114.306 23.7027 113.826 22.7595C113.538 23.1592 113.25 23.6228 112.899 24.0384C112.211 24.8378 111.572 25.717 110.773 26.3885C108.742 28.131 106.376 27.4756 105.561 24.9337C105.241 23.9265 105.017 22.8234 105.033 21.7683C105.033 19.1944 105.193 16.6206 105.289 14.0467C105.305 13.5511 105.289 13.0555 105.289 12.3681C104.985 12.6719 104.793 12.8477 104.634 13.0555C103.467 14.5583 102.891 16.3168 102.364 18.1073C102.012 19.3223 101.708 20.5693 101.356 21.8003C101.005 23.0153 100.285 23.6068 99.2781 23.6068C98.2709 23.6068 97.3597 22.8554 97.1199 21.6884C96.8641 20.4574 96.7202 19.2104 96.5284 17.9795C96.4484 17.4839 96.4005 16.9883 96.1926 16.4607C96.0328 16.8924 95.8409 17.308 95.745 17.7397C95.2654 19.9138 94.8338 22.088 94.3701 24.2622C94.2902 24.6459 94.2103 25.0296 94.0664 25.3813C93.7467 26.1647 93.1232 26.5803 92.2919 26.5643C91.4766 26.5643 90.7891 26.1806 90.5014 25.3813C90.1976 24.518 89.9258 23.6068 89.7979 22.6955C89.2544 18.8268 89.3503 14.9739 89.9258 11.1211C90.0697 10.146 91.0449 9.45853 92.0681 9.58642C93.0592 9.69833 93.7946 10.6256 93.7307 11.6487C93.6987 12.0004 93.6188 12.3521 93.6188 12.7358C94.578 11.6007 95.3294 10.1779 97.1199 10.3378C99.0063 10.4977 99.326 12.0804 99.8216 13.6151C99.9815 13.3273 100.093 13.1355 100.189 12.9276C100.877 11.5368 101.772 10.2898 102.923 9.26669C103.802 8.49932 104.825 8.0357 106.008 8.22754C107.591 8.48333 108.534 9.53846 108.806 11.0092C109.062 12.464 109.094 13.9668 109.094 15.4535C109.094 17.6437 108.934 19.8179 108.87 22.0081C108.87 22.2479 108.902 22.5037 109.062 22.7915C109.366 22.3918 109.701 22.0081 109.973 21.5765C111.14 19.754 112.323 17.9475 113.426 16.093C113.714 15.5974 113.714 14.942 113.842 14.3505C114.002 13.6151 114.13 12.8637 114.354 12.1443C114.673 11.0732 115.728 10.5137 116.752 10.8174C117.711 11.1052 118.318 12.1763 118.031 13.1994C117.423 15.3896 117.263 17.6277 117.439 19.8819C117.519 21.0009 117.871 22.104 118.094 23.2231C118.19 23.2231 118.286 23.2551 118.382 23.2711C118.926 22.5836 119.549 21.9442 119.965 21.1768C120.94 19.4342 121.883 17.6437 122.731 15.8212C123.098 15.0379 123.098 14.0947 123.354 13.2474C123.962 11.313 125.001 9.66636 126.711 8.5313C128.182 7.55611 129.797 7.25235 131.443 8.08366C133.17 8.94695 133.921 10.4497 133.697 12.3681C133.41 14.9899 131.283 17.6277 128.838 18.3152C128.134 18.507 127.399 18.555 126.647 18.6669C126.807 19.8499 127.223 20.953 128.054 21.8482C128.694 22.5517 129.541 22.7115 130.436 22.5037C131.859 22.184 133.042 21.4326 134.001 20.3775C135.392 18.8587 136.703 17.276 138.014 15.7093C138.861 14.6862 140.14 14.4784 141.003 15.2937C141.611 15.8532 141.803 16.7165 141.339 17.4039C140.732 18.2992 140.092 19.1625 139.389 19.9938C137.854 21.7843 136.351 23.6068 134.273 24.8218C132.259 26.0048 130.116 26.5164 127.814 25.8449C126.264 25.3973 125.145 24.3901 124.281 23.0632C124.137 22.8394 124.01 22.6156 123.866 22.3598H123.85ZM127.655 14.9739C127.862 14.862 128.278 14.7501 128.454 14.4943C128.981 13.743 129.445 12.9436 129.845 12.1283C129.957 11.9205 129.749 11.5528 129.685 11.249C129.413 11.329 129.093 11.345 128.87 11.4888C127.862 12.1923 127.367 13.2474 126.999 14.3665C126.855 14.7981 127.111 14.958 127.655 14.9739Z" fill="#0E123E"/>
<path d="M59.1994 13.2474C59.615 11.5528 59.9347 10.0181 60.3824 8.51531C60.9099 6.78874 61.5014 5.06218 62.2049 3.39956C62.5406 2.60022 63.1161 1.86483 63.7396 1.25733C65.3542 -0.357327 67.6244 0.0263572 68.7434 2.0247C69.5907 3.55942 69.7826 5.27 69.8785 6.98058C70.1343 11.7926 70.3261 16.6206 70.5659 21.4486C70.6459 23.1751 70.7737 24.9017 70.8537 26.6283C70.9016 27.8752 70.1982 28.6906 69.0951 28.7545C67.9921 28.8185 67.1927 28.147 67.0968 26.916C66.873 23.7666 66.6971 20.6173 66.5373 17.4519C66.3774 14.2386 66.2815 11.0092 66.1216 7.77992C66.0736 6.86868 65.9138 5.95743 65.8019 5.0302C65.7379 5.0302 65.658 5.01422 65.594 4.99823C65.2583 5.89349 64.8427 6.77275 64.6189 7.684C63.6596 11.7606 62.7484 15.8532 61.8212 19.9298C61.6293 20.8091 61.4695 21.7044 61.2776 22.5996C61.0218 23.7027 60.2705 24.3901 59.3113 24.4381C58.3361 24.4861 57.5207 23.9105 57.217 22.7595C56.7534 20.889 56.3857 19.0026 55.986 17.1322C55.2346 13.6311 54.4833 10.114 53.7319 6.61289C53.6999 6.43703 53.604 6.26118 53.4281 6.08532C53.2203 6.91663 52.9805 7.73196 52.8207 8.56327C52.1652 11.9844 51.9574 15.4216 52.1972 18.9067C52.373 21.3527 52.5649 23.7826 52.7407 26.2286C52.8206 27.3637 52.0373 28.2589 50.9182 28.3229C49.8471 28.3868 49.0798 27.6674 48.9519 26.5164C48.4883 22.5357 48.2485 18.539 48.3284 14.5263C48.4083 10.7375 48.9359 7.02854 50.3427 3.49547C50.5985 2.87199 50.9662 2.24851 51.4138 1.73694C52.7087 0.218198 54.7551 0.250172 55.8102 1.91279C56.5296 3.06384 57.0571 4.37475 57.4248 5.70164C58.0963 8.13163 58.6078 10.6096 59.2153 13.2474H59.1994Z" fill="#0E123E"/>
<path d="M82.7798 14.5263C81.9485 12.6559 80.3658 11.7606 78.4474 12.0644C78.1596 12.1123 77.8719 12.2562 77.6001 12.3681C76.497 12.8797 75.314 12.544 74.8664 11.5848C74.3548 10.4977 74.7704 9.52247 75.9854 8.96294C79.5505 7.31631 83.8829 8.75511 85.8972 12.2722C86.7285 13.727 87.1601 15.2937 87.272 16.9563C87.4319 19.5781 87.304 22.184 86.8564 24.7738C86.7125 25.6211 86.2649 26.1966 85.4336 26.4364C84.5863 26.6762 83.8509 26.3885 83.3713 25.717C83.0995 25.3333 83.0516 24.7578 82.9716 24.2622C82.9077 23.8626 82.9556 23.4469 82.9396 22.8714C82.508 23.2391 82.2202 23.5428 81.8845 23.7826C80.7974 24.55 79.7583 25.4772 78.5593 25.9888C75.4099 27.2837 72.5163 25.5891 72.0687 22.2319C71.701 19.5302 72.2925 17.0202 74.4667 15.1818C76.7688 13.2154 79.3906 13.2314 82.0764 14.3025C82.2682 14.3824 82.476 14.4784 82.6679 14.5583C82.6679 14.5583 82.6998 14.5583 82.7798 14.5263ZM75.7136 21.2727C75.8735 21.6564 75.9694 22.3918 76.3531 22.6156C76.6729 22.8074 77.4722 22.5197 77.8399 22.1999C79.0549 21.1768 80.1899 20.0417 81.325 18.9387C81.4369 18.8267 81.4689 18.4111 81.357 18.3152C80.4777 17.4679 79.4226 17.1162 78.2076 17.34C77.0565 17.5638 76.3531 18.3312 76.0334 19.4183C75.8735 19.9458 75.8256 20.5213 75.6977 21.2727H75.7136Z" fill="#0E123E"/>
<path d="M118.846 7.62005C118.878 8.65919 118.046 9.52247 116.943 9.57043C115.92 9.61839 114.993 8.73912 114.977 7.66801C114.961 6.62887 115.84 5.70164 116.879 5.68565C117.999 5.65368 118.814 6.46901 118.846 7.62005Z" fill="#0E123E"/>
<path d="M126.392 42.0874C126.552 43.4623 127.016 44.6453 127.975 45.5566C128.886 46.4198 130.037 46.3719 131.06 45.8603C132.115 45.3327 133.187 44.6933 134.002 43.862C135.489 42.3592 136.8 40.6806 138.158 39.05C139.054 37.9948 140.397 37.819 141.292 38.6983C141.835 39.2418 142.075 40.0571 141.644 40.6646C139.326 43.9739 136.928 47.2512 133.123 49.0577C129.478 50.7842 125.465 49.857 123.499 45.9243C123.467 45.8603 123.403 45.7964 123.307 45.6685C122.875 46.228 122.523 46.8195 122.044 47.2831C121.229 48.0665 120.413 48.9298 119.438 49.4733C117.648 50.4805 115.681 49.905 114.738 48.0665C114.21 47.0593 113.891 45.8603 113.811 44.7253C113.667 42.7109 113.779 40.6966 113.779 38.6663C113.779 37.9948 113.779 37.3074 113.763 36.636C113.683 36.62 113.603 36.588 113.523 36.572C113.091 37.2754 112.548 37.9309 112.228 38.6823C111.093 41.3201 110.038 44.0059 108.951 46.6596C108.775 47.1073 108.599 47.5549 108.375 48.0025C107.784 49.1856 106.872 49.7611 105.769 49.6172C104.586 49.4573 104.091 48.5781 103.771 47.5549C103.707 47.3631 103.675 47.1712 103.595 46.8355C103.323 47.1712 103.132 47.427 102.892 47.6508C102.156 48.3223 101.485 49.0896 100.654 49.5852C98.6233 50.7682 96.4971 50.0328 95.4739 47.9066C94.6106 46.1161 94.6906 44.1817 94.6746 42.2793C94.6746 40.4728 94.6426 38.6503 94.6266 36.7159C94.3389 37.0836 94.0671 37.3873 93.8433 37.7391C92.2286 40.2809 91.2374 43.0946 90.2463 45.9083C89.9585 46.7236 89.6548 47.5389 89.2711 48.3223C88.7115 49.4413 87.7523 49.9849 86.6812 49.825C85.5462 49.6492 84.9866 48.8179 84.7309 47.8107C83.9475 44.6773 83.9795 41.4799 84.2033 38.2986C84.2832 37.2594 84.4111 36.2203 84.587 35.1812C84.7948 33.8703 85.9458 33.023 87.0809 33.2947C88.2 33.5665 88.8075 34.8614 88.5517 36.1244C88.2959 37.3234 88.184 38.5544 88.0081 39.7694C88.0721 39.7694 88.136 39.8013 88.2 39.8013C88.8554 38.5704 89.431 37.3074 90.1823 36.1404C90.8218 35.1492 91.5732 34.174 92.4364 33.3587C94.8345 31.0726 97.776 31.9359 98.3515 35.2132C98.7352 37.3714 98.5913 39.6255 98.6713 41.8476C98.7192 43.2065 98.7352 44.5654 98.7672 45.9243C98.8631 45.9402 98.975 45.9722 99.0709 45.9882C99.5505 45.4287 100.078 44.9171 100.478 44.3096C101.357 42.9987 102.236 41.6718 102.956 40.265C103.275 39.6255 103.196 38.7782 103.291 38.0268C103.403 37.0356 103.483 36.0445 103.611 35.0533C103.803 33.6944 104.954 32.8151 106.121 33.0709C107.24 33.3267 107.848 34.5897 107.592 35.8846C107.352 37.1156 107.224 38.3625 107.224 39.6255C107.928 38.3306 108.535 36.9877 109.334 35.7727C109.974 34.7815 110.757 33.8223 111.621 33.023C113.827 30.9767 116.528 31.792 117.344 34.7016C117.584 35.5808 117.695 36.5081 117.711 37.4193C117.775 39.8173 117.743 42.2153 117.759 44.6133C117.759 44.981 117.871 45.3487 117.967 45.9562C118.623 45.1729 119.198 44.5974 119.646 43.9419C120.541 42.583 121.468 41.2082 122.172 39.7534C122.603 38.8581 122.619 37.771 122.891 36.7958C123.483 34.7495 124.554 33.007 126.296 31.76C127.751 30.7209 129.382 30.3692 131.076 31.0726C133.043 31.8879 133.938 33.6624 133.618 35.7887C133.187 38.7462 130.901 41.2721 128.055 41.9116C127.543 42.0235 127 42.0235 126.392 42.0874ZM129.733 35.2132C129.733 34.4138 129.446 34.238 128.886 34.5577C127.783 35.1972 127.24 36.2523 126.84 37.4033C126.76 37.6271 126.728 38.0748 126.84 38.1387C127.064 38.2506 127.447 38.2986 127.671 38.1867C128.934 37.5472 129.462 36.3802 129.749 35.2291L129.733 35.2132Z" fill="#0E123E"/>
<path d="M17.6985 28.4827C17.139 30.3532 16.4675 32.1917 16.0199 34.0941C15.0767 38.2506 14.2454 42.4232 13.3661 46.5797C13.0144 48.2423 11.5916 49.0257 10.2487 48.3223C9.54527 47.9546 9.22554 47.3311 9.08166 46.6117C8.4262 43.4943 7.80272 40.3609 7.14727 37.2435C6.61971 34.7815 6.04418 32.3196 5.48465 29.8576C5.46866 29.7617 5.40471 29.6817 5.16491 29.5538C4.84518 31.1845 4.47748 32.7992 4.23768 34.4458C3.74209 37.9789 3.82203 41.5279 4.0938 45.077C4.23768 46.8355 4.39755 48.594 4.52544 50.3526C4.60538 51.5516 3.854 52.4468 2.7669 52.5268C1.50395 52.6227 0.656655 51.9353 0.576721 50.6244C0.33692 46.4518 0.0331717 42.2633 0.00119826 38.0748C-0.0307752 34.4138 0.576718 30.8008 1.87164 27.3477C2.17539 26.5483 2.59105 25.749 3.1346 25.0935C4.49347 23.4469 6.68365 23.5109 7.75476 25.3493C8.53811 26.6602 9.08166 28.163 9.49731 29.6498C10.1528 31.9998 10.6164 34.4138 11.2079 37.0196C11.5116 35.7727 11.7035 34.7176 12.0232 33.6944C12.6787 31.5202 13.3022 29.346 14.1175 27.2358C14.4852 26.2606 15.1566 25.3493 15.908 24.598C17.5866 22.9034 19.9207 23.303 21.0877 25.3973C21.951 26.964 22.1428 28.7066 22.2547 30.4331C22.4785 34.3019 22.6384 38.1867 22.8143 42.0715C22.9581 45.013 23.118 47.9386 23.2299 50.8801C23.2779 52.1431 22.6384 52.8945 21.5353 52.9904C20.2724 53.0863 19.473 52.4948 19.3611 51.1839C19.1533 48.8179 19.0254 46.4518 18.9135 44.0698C18.7376 40.1211 18.6097 36.1564 18.4339 32.1917C18.3859 30.9767 18.1941 29.7617 18.0822 28.5627C17.9543 28.5467 17.8424 28.5147 17.7145 28.4987L17.6985 28.4827Z" fill="#0E123E"/>
<path d="M77.377 46.5158C76.4177 47.3311 75.6664 48.0185 74.867 48.626C73.2364 49.841 71.4459 50.6403 69.3836 49.9849C68.5843 49.7291 67.8968 49.1536 67.2094 48.7699C66.7458 49.2015 66.2342 49.7131 65.7066 50.1607C63.2607 52.255 60.3511 51.6795 59.0881 48.7059C58.5126 47.379 58.2089 45.8763 58.049 44.4375C57.7772 41.7837 57.9371 39.1299 58.6085 36.5401C58.7045 36.1564 58.8323 35.7407 59.0402 35.405C59.5677 34.5737 60.5749 34.2859 61.4542 34.6696C62.3654 35.0693 62.861 36.0445 62.5732 37.0836C61.9657 39.3058 61.8698 41.5599 61.9658 43.846C62.0137 45.077 62.2535 46.26 62.877 47.5229C63.4685 46.8035 64.06 46.212 64.4597 45.5246C65.259 44.1337 66.0264 42.7269 66.6499 41.2561C67.8808 38.3625 70.7425 36.62 73.8759 37.0516C74.963 37.2115 76.0341 37.5472 77.0572 37.787C76.7055 35.9645 74.0197 34.7016 72.0694 35.5649C71.6377 35.7567 71.1581 35.8686 70.6945 35.9006C69.8632 35.9485 69.1758 35.421 68.936 34.6856C68.6482 33.7584 68.84 32.9111 69.6554 32.4794C70.4067 32.0797 71.2381 31.744 72.0694 31.6161C77.0892 30.8648 80.2066 34.1101 81.2937 37.6271C82.0291 39.9932 81.9651 42.4232 81.8213 44.8372C81.7413 46.0841 81.5495 47.3151 81.3896 48.5621C81.2777 49.3934 80.8141 49.9689 79.9988 50.2247C79.1515 50.4805 78.4161 50.2407 77.8565 49.6012C77.6327 49.3454 77.4729 48.9937 77.4409 48.658C77.377 48.0345 77.4089 47.395 77.3929 46.5477L77.377 46.5158ZM69.7513 44.6133C70.039 45.2688 70.1509 46.0362 70.5506 46.276C70.8863 46.4678 71.5738 46.0202 72.1173 45.8603C72.1653 45.8603 72.1973 45.8124 72.2452 45.7644C73.3323 44.7412 74.4354 43.7181 75.5225 42.6949C76.0341 42.2153 75.9701 41.8317 75.3786 41.4959C75.2507 41.416 75.1228 41.3201 74.9949 41.2401C73.6201 40.4408 71.7656 40.5207 71.0142 41.6238C70.4227 42.4871 70.1669 43.5902 69.7513 44.6133Z" fill="#0E123E"/>
<path d="M35.5397 38.3625C34.9002 36.2523 32.4063 35.1172 30.4719 35.9805C30.0243 36.1883 29.4967 36.2843 29.0171 36.3002C28.2497 36.3322 27.5783 35.7887 27.3545 35.0693C27.0987 34.238 27.2266 33.4066 27.914 33.023C28.6974 32.5753 29.5607 32.1757 30.4399 32.0318C34.6444 31.3603 38.3054 33.7104 39.6323 37.771C40.3837 40.0571 40.3837 42.3912 40.2558 44.7412C40.1758 46.196 39.968 47.6348 39.7602 49.0736C39.6003 50.1288 38.6891 50.8002 37.6979 50.7203C36.6268 50.6403 35.8274 49.809 35.7955 48.7059C35.7795 48.1784 35.7955 47.6508 35.7795 46.9314C35.14 47.491 34.6604 47.9386 34.1648 48.3542C33.0618 49.2815 31.9107 50.0968 30.4719 50.4485C27.898 51.072 25.6279 49.857 24.7806 47.3311C23.7894 44.4055 24.7327 39.1938 29.3049 37.6751C31.0954 37.0836 32.8699 37.3074 34.6125 37.9629C34.9162 38.0748 35.204 38.2187 35.5397 38.3625ZM34.4206 42.5351C32.806 40.7446 30.312 40.6966 29.161 42.3752C28.4256 43.4303 28.2657 44.6453 28.4736 45.8923C28.6334 46.8515 29.097 47.0753 29.9923 46.5957C31.8148 45.6365 33.1257 44.1178 34.4366 42.5351H34.4206Z" fill="#0E123E"/>
<path d="M46.8263 35.6608C48.1212 34.206 49.608 33.1509 51.3985 32.4794C52.5496 32.0478 53.7166 31.8719 54.9316 32.0478C55.8428 32.1757 56.5782 32.6073 56.9619 33.4866C57.2656 34.174 57.1377 34.8454 56.6741 35.437C56.2105 36.0285 55.5551 36.3802 54.8517 36.1564C53.1251 35.6128 51.8781 36.4761 50.7431 37.5152C49.4321 38.7142 48.8406 40.3769 48.5849 42.0715C48.2971 43.9899 48.2012 45.9243 48.0413 47.8587C47.9454 49.1056 47.3859 49.841 46.3147 50.0328C45.3076 50.2087 44.3804 49.6971 44.0926 48.4981C43.613 46.5318 43.1494 44.5174 42.9895 42.5031C42.7817 40.0252 42.8776 37.4992 42.8776 35.0053C42.8776 34.0141 43.0534 33.0709 43.9967 32.4634C44.6841 32.0318 45.3715 32.0957 46.027 32.4634C46.6984 32.8471 47.0501 33.4546 47.0182 34.2379C47.0022 34.7176 46.8903 35.1812 46.8263 35.6608Z" fill="#0E123E"/>
<path d="M61.3582 33.2468C60.2552 33.2468 59.4398 32.4474 59.4398 31.3124C59.4398 30.2253 60.3351 29.2661 61.3742 29.2341C62.4933 29.2021 63.4205 30.1454 63.4205 31.3444C63.4205 32.3995 62.5413 33.2148 61.3423 33.2308L61.3582 33.2468Z" fill="#0E123E"/>
</svg>
