<svg width="22" height="22" viewBox="0 0 22 22" fill="none" xmlns="http://www.w3.org/2000/svg">
<path d="M10.0768 2.21997C10.4184 1.39868 11.5819 1.39868 11.9235 2.21997L13.9396 7.06739C14.0836 7.41363 14.4093 7.6502 14.783 7.68016L20.0162 8.09971C20.9029 8.17079 21.2624 9.2773 20.5869 9.85597L16.5997 13.2714C16.315 13.5153 16.1906 13.8981 16.2776 14.2629L17.4957 19.3696C17.7021 20.2348 16.7609 20.9187 16.0018 20.455L11.5214 17.7184C11.2014 17.523 10.7989 17.523 10.4789 17.7184L5.99857 20.455C5.23947 20.9187 4.29822 20.2348 4.5046 19.3696L5.72274 14.2629C5.80975 13.8981 5.68538 13.5153 5.40059 13.2714L1.41344 9.85596C0.737907 9.2773 1.09743 8.17079 1.98409 8.09971L7.21728 7.68016C7.59107 7.6502 7.91668 7.41363 8.06069 7.06739L10.0768 2.21997Z" fill="#524E6A"/>
<path fill-rule="evenodd" clip-rule="evenodd" d="M9.38436 1.93195C9.98215 0.494686 12.0182 0.494691 12.616 1.93195L14.6321 6.77937C14.6681 6.86593 14.7495 6.92507 14.843 6.93256L20.0762 7.35211C21.6278 7.4765 22.257 9.41289 21.0748 10.4256L17.0877 13.841C17.0165 13.902 16.9854 13.9977 17.0071 14.0888L18.2253 19.1956C18.5864 20.7097 16.9392 21.9065 15.6108 21.0951L11.1305 18.3585C11.0505 18.3096 10.9499 18.3096 10.8699 18.3585L6.38951 21.0951C5.06108 21.9065 3.41389 20.7097 3.77507 19.1956L4.99321 14.0888C5.01496 13.9977 4.98387 13.902 4.91267 13.841L0.925526 10.4256C-0.256666 9.41289 0.372512 7.4765 1.92415 7.35211L7.15735 6.93256C7.2508 6.92507 7.3322 6.86593 7.3682 6.77937L9.38436 1.93195ZM11.231 2.508C11.1456 2.30267 10.8547 2.30267 10.7693 2.508L8.75318 7.35542C8.50117 7.96133 7.93135 8.37532 7.27722 8.42777L2.04402 8.84731C1.82236 8.86508 1.73248 9.14171 1.90136 9.28637L5.88851 12.7018C6.38689 13.1287 6.60454 13.7986 6.45227 14.4369L5.23414 19.5436C5.18254 19.7599 5.41785 19.9309 5.60763 19.815L10.088 17.0784C10.648 16.7363 11.3523 16.7363 11.9124 17.0784L16.3927 19.815C16.5825 19.9309 16.8178 19.7599 16.7662 19.5436L15.5481 14.4369C15.3958 13.7986 15.6134 13.1287 16.1118 12.7018L20.099 9.28637C20.2679 9.1417 20.178 8.86508 19.9563 8.84731L14.7231 8.42777C14.069 8.37532 13.4992 7.96133 13.2472 7.35542L11.231 2.508Z" fill="#524E6A"/>
</svg>
