<svg width="18" height="18" viewBox="0 0 18 18" fill="none" xmlns="http://www.w3.org/2000/svg">
<path d="M8.23054 1.68323C8.51521 0.998819 9.48475 0.99882 9.76941 1.68323L11.4495 5.72275C11.5695 6.01128 11.8409 6.20842 12.1524 6.23339L16.5134 6.58301C17.2523 6.64224 17.5519 7.56433 16.9889 8.04656L13.6663 10.8927C13.429 11.096 13.3253 11.415 13.3978 11.719L14.4129 15.9746C14.5849 16.6956 13.8006 17.2655 13.168 16.8791L9.43435 14.5986C9.16767 14.4357 8.83228 14.4357 8.5656 14.5986L4.83197 16.8791C4.19939 17.2655 3.41502 16.6956 3.58701 15.9746L4.60212 11.719C4.67463 11.415 4.57098 11.096 4.33366 10.8927L1.01104 8.04656C0.448093 7.56433 0.747699 6.64224 1.48658 6.58301L5.84757 6.23339C6.15907 6.20842 6.43041 6.01128 6.55041 5.72275L8.23054 1.68323Z" fill="#524E6A"/>
<path fill-rule="evenodd" clip-rule="evenodd" d="M7.65347 1.44321C8.15163 0.24549 9.84833 0.245495 10.3465 1.44321L12.0266 5.48273C12.0566 5.55486 12.1245 5.60415 12.2023 5.61039L16.5633 5.96001C17.8564 6.06367 18.3807 7.67733 17.3955 8.52122L14.0729 11.3674C14.0136 11.4182 13.9876 11.498 14.0058 11.574L15.0209 15.8295C15.3219 17.0913 13.9492 18.0886 12.8422 17.4125L9.10857 15.132C9.0419 15.0913 8.95805 15.0913 8.89138 15.132L5.15776 17.4125C4.05074 18.0886 2.67808 17.0913 2.97906 15.8295L3.99418 11.574C4.0123 11.498 3.98639 11.4182 3.92706 11.3674L0.604442 8.52122C-0.380717 7.67732 0.143597 6.06367 1.43663 5.96001L5.79763 5.61039C5.8755 5.60415 5.94334 5.55486 5.97334 5.48273L7.65347 1.44321ZM9.19233 1.92325C9.12117 1.75215 8.87878 1.75215 8.80762 1.92325L7.12749 5.96277C6.91748 6.46769 6.44263 6.81269 5.89752 6.85639L1.53652 7.20601C1.3518 7.22082 1.2769 7.45134 1.41764 7.5719L4.74026 10.4181C5.15557 10.7738 5.33695 11.3321 5.21006 11.864L4.19495 16.1196C4.15195 16.2998 4.34805 16.4423 4.50619 16.3457L8.23981 14.0652C8.7065 13.7802 9.29345 13.7802 9.76014 14.0652L13.4938 16.3457C13.6519 16.4423 13.848 16.2998 13.805 16.1196L12.7899 11.864C12.663 11.3321 12.8444 10.7738 13.2597 10.4181L16.5823 7.5719C16.7231 7.45134 16.6481 7.22082 16.4634 7.20601L12.1024 6.85639C11.5573 6.81269 11.0825 6.46769 10.8725 5.96277L9.19233 1.92325Z" fill="#524E6A"/>
</svg>
