<svg width="20" height="20" viewBox="0 0 20 20" fill="none" xmlns="http://www.w3.org/2000/svg">
<g clip-path="url(#clip0_2834_1661)">
<path d="M19.9783 18.2421L19.0083 14.6209C18.9812 14.5218 18.9303 14.4307 18.8599 14.3558C18.7895 14.2808 18.7019 14.2242 18.6046 14.1909L16.7059 13.5485C15.2997 11.1173 15.8334 8.49357 16.2959 7.1261C17.0346 4.93989 16.4271 2.57869 14.7847 1.24997C13.7885 0.443741 12.5335 0 11.2498 0C8.36232 0 6.00362 2.19495 5.68863 4.99989H3.12493C2.95869 4.99989 2.79994 5.06614 2.68244 5.18239L0.182496 7.68234C0.0657723 7.80005 0.000194009 7.95905 0 8.12483L0 19.3746C0 19.7196 0.279994 19.9996 0.624987 19.9996H11.8747C12.2197 19.9996 12.4997 19.7196 12.4997 19.3746V8.12483C12.4997 7.95858 12.4335 7.79983 12.3172 7.68234L9.81729 5.18239C9.69958 5.06566 9.54057 5.00009 9.3748 4.99989H6.9386C7.24484 2.88494 9.05231 1.24997 11.2498 1.24997C12.2485 1.24997 13.2247 1.59497 13.9985 2.2212C15.2359 3.22243 15.6834 5.03239 15.1122 6.72486C14.5934 8.25857 14.0122 11.1735 15.5197 13.9659L14.3134 15.3397C14.2457 15.4172 14.1981 15.5102 14.1748 15.6105C14.1515 15.7107 14.1532 15.8152 14.1797 15.9147L15.1497 19.5358C15.2247 19.8158 15.4772 19.9996 15.7534 19.9996C15.8072 19.9996 15.8609 19.9921 15.9159 19.9783L19.5371 19.0083C19.8696 18.9183 20.0683 18.5759 19.9783 18.2421ZM9.99979 13.7497V14.3747C9.99979 15.7559 8.88106 16.8746 7.49984 16.8746H7.29109L7.49984 17.4996H7.49359C5.50613 17.4996 3.74242 16.2284 3.11368 14.3434L2.49995 12.4997H2.5062C4.24866 12.4997 5.81863 13.4772 6.60236 14.9884C7.03735 14.2509 7.83108 13.7497 8.74981 13.7497H9.99979ZM7.49984 8.12483C7.49984 8.46982 7.21985 8.74981 6.87485 8.74981H5.62488C5.27989 8.74981 4.99989 8.46982 4.99989 8.12483C4.99989 7.77983 5.27989 7.49984 5.62488 7.49984H6.87485C7.21985 7.49984 7.49984 7.77983 7.49984 8.12483Z" fill="#524E6A"/>
</g>
<defs>
<clipPath id="clip0_2834_1661">
<rect width="20" height="20" fill="white"/>
</clipPath>
</defs>
</svg>
