<svg width="24" height="24" viewBox="0 0 24 24" fill="none" xmlns="http://www.w3.org/2000/svg">
<path fill-rule="evenodd" clip-rule="evenodd" d="M12.0006 2.75C10.0478 2.75 8.46484 4.33299 8.46484 6.28571C8.46484 8.23844 10.0478 9.82143 12.0006 9.82143C13.9533 9.82143 15.5363 8.23844 15.5363 6.28571C15.5363 4.33299 13.9533 2.75 12.0006 2.75ZM6.96484 6.28571C6.96484 3.50457 9.21941 1.25 12.0006 1.25C14.7817 1.25 17.0363 3.50457 17.0363 6.28571C17.0363 9.06686 14.7817 11.3214 12.0006 11.3214C9.21941 11.3214 6.96484 9.06686 6.96484 6.28571Z" fill="#28293A"/>
<path fill-rule="evenodd" clip-rule="evenodd" d="M4.31056 16.1661C5.8678 14.5023 8.40041 13.25 12.2867 13.25C16.173 13.25 18.7056 14.5023 20.2628 16.1661C21.8004 17.8088 22.3224 19.7847 22.3224 21.1429C22.3224 21.5571 21.9866 21.8929 21.5724 21.8929H3.00098C2.58676 21.8929 2.25098 21.5571 2.25098 21.1429C2.25098 19.7847 2.77293 17.8088 4.31056 16.1661ZM3.81476 20.3929H20.7586C20.6025 19.4301 20.141 18.2309 19.1677 17.1911C17.9392 15.8786 15.829 14.75 12.2867 14.75C8.7444 14.75 6.63416 15.8786 5.40568 17.1911C4.4324 18.2309 3.97083 19.4301 3.81476 20.3929Z" fill="#28293A"/>
</svg>
