<svg width="18" height="18" viewBox="0 0 18 18" fill="none" xmlns="http://www.w3.org/2000/svg">
<path d="M11.6365 7.717C11.6821 8.16357 11.7082 8.59582 11.7082 9.00033C11.7082 9.75758 11.6166 10.6126 11.4767 11.4772C10.6121 11.6171 9.75709 11.7087 8.99984 11.7087C8.24602 11.7087 7.39121 11.6174 6.52294 11.4769C6.38302 10.6124 6.2915 9.7575 6.2915 9.00033C6.2915 8.59595 6.31761 8.1637 6.36324 7.717C7.2745 7.86287 8.18356 7.95866 8.99986 7.95866C9.81616 7.95866 10.7252 7.86287 11.6365 7.717Z" fill="#524E6A"/>
<path d="M12.8691 7.49193C12.9254 8.01454 12.9582 8.52337 12.9582 9.00033C12.9582 9.6963 12.8885 10.4598 12.7776 11.2347C14.351 10.9064 15.8054 10.4869 16.5845 10.2481C16.8363 10.1709 16.9352 10.1403 17.068 10.0872C17.1343 10.0606 17.1951 10.0336 17.2743 9.99578C17.3132 9.66938 17.3332 9.33719 17.3332 9.00033C17.3332 8.10987 17.1935 7.25203 16.9349 6.44752L16.8675 6.46872C16.0529 6.71655 14.5277 7.15469 12.8691 7.49193Z" fill="#524E6A"/>
<path d="M16.4615 5.28562C15.6425 5.53383 14.2212 5.93715 12.6981 6.25114C12.3473 4.11878 11.7323 1.992 11.4365 1.02888C13.6365 1.70054 15.4501 3.258 16.4615 5.28562Z" fill="#524E6A"/>
<path d="M11.4694 6.47833C10.6072 6.61764 9.75487 6.70866 8.99986 6.70866C8.24486 6.70866 7.39251 6.61764 6.53034 6.47834C6.86072 4.46068 7.45049 2.39958 7.75204 1.41567C7.82922 1.16386 7.8599 1.06496 7.913 0.932213C7.93953 0.865899 7.96653 0.805072 8.00438 0.725834C8.33079 0.68698 8.66298 0.666992 8.99984 0.666992C9.35173 0.666992 9.69852 0.688803 10.0389 0.731146C10.0462 0.758768 10.0529 0.78349 10.0595 0.806878C10.0789 0.875985 10.1095 0.973106 10.1608 1.13607L10.1662 1.15319C10.4232 1.97035 11.1045 4.24954 11.4694 6.47833Z" fill="#524E6A"/>
<path d="M5.30146 6.25112C5.65071 4.12816 6.26163 2.01283 6.55691 1.04938L6.5632 1.02887C4.36314 1.70052 2.5496 3.25798 1.53821 5.28561C2.35712 5.53381 3.77837 5.93712 5.30146 6.25112Z" fill="#524E6A"/>
<path d="M1.06479 6.44751C0.806169 7.25202 0.666504 8.10986 0.666504 9.00033C0.666504 9.34867 0.687877 9.69202 0.729384 10.0291L0.860717 10.0729L0.861762 10.0733L0.86305 10.0737L0.863957 10.074C0.906227 10.088 2.14512 10.4971 3.77665 10.9031C4.23703 11.0176 4.7245 11.1308 5.22211 11.2346C5.11114 10.4597 5.0415 9.69627 5.0415 9.00033C5.0415 8.52322 5.07423 8.01439 5.13057 7.49191C3.47149 7.15458 1.94601 6.71629 1.13156 6.46849L1.12589 6.46677L1.06479 6.44751Z" fill="#524E6A"/>
<path d="M8.99984 12.9587C9.69582 12.9587 10.4593 12.889 11.2342 12.778C10.9059 14.3515 10.4864 15.8059 10.2476 16.585C10.1705 16.8368 10.1398 16.9357 10.0867 17.0684C10.0601 17.1348 10.0332 17.1956 9.99529 17.2748C9.66889 17.3137 9.3367 17.3337 8.99984 17.3337C8.66298 17.3337 8.33079 17.3137 8.00438 17.2748C7.96653 17.1956 7.93953 17.1348 7.91301 17.0684C7.8599 16.9357 7.82922 16.8368 7.75204 16.585C7.51329 15.806 7.09385 14.3517 6.76553 12.7783C7.53788 12.8889 8.30147 12.9587 8.99984 12.9587Z" fill="#524E6A"/>
<path d="M3.47484 12.1161C2.44311 11.8594 1.5644 11.6015 1.02838 11.437C1.83522 14.0798 3.92033 16.1649 6.5632 16.9718L6.55692 16.9513C6.29908 16.11 5.8006 14.3905 5.4458 12.5546C4.75579 12.4212 4.08494 12.2679 3.47484 12.1161Z" fill="#524E6A"/>
<path d="M16.9508 11.4432C16.1095 11.7011 14.3899 12.1996 12.5539 12.5544C12.1991 14.3904 11.7006 16.11 11.4428 16.9513L11.4365 16.9718C14.0793 16.1649 16.1645 14.0798 16.9713 11.437L16.9508 11.4432Z" fill="#524E6A"/>
<path d="M0.754046 10.0503C0.782894 10.054 0.806405 10.058 0.814207 10.0598C0.821044 10.0615 0.831749 10.0643 0.835633 10.0654L0.84421 10.0678L0.848827 10.0692L0.853686 10.0707L0.857757 10.072C0.855471 10.0713 0.809169 10.0597 0.754046 10.0503Z" fill="#524E6A"/>
</svg>
